<?xml version="1.0" encoding="UTF-8" standalone="no"?>
<!-- Created with Inkscape (http://www.inkscape.org/) -->

<svg
   xmlns:dc="http://purl.org/dc/elements/1.1/"
   xmlns:cc="http://creativecommons.org/ns#"
   xmlns:rdf="http://www.w3.org/1999/02/22-rdf-syntax-ns#"
   xmlns:svg="http://www.w3.org/2000/svg"
   xmlns="http://www.w3.org/2000/svg"
   xmlns:sodipodi="http://sodipodi.sourceforge.net/DTD/sodipodi-0.dtd"
   xmlns:inkscape="http://www.inkscape.org/namespaces/inkscape"
   width="210mm"
   height="297mm"
   viewBox="0 0 744.09448819 1052.3622047"
   id="svg2"
   version="1.1"
   inkscape:version="0.91 r13725"
   sodipodi:docname="incastro-d.svg">
  <defs
     id="defs4" />
  <sodipodi:namedview
     id="base"
     pagecolor="#ffffff"
     bordercolor="#666666"
     borderopacity="1.0"
     inkscape:pageopacity="0.0"
     inkscape:pageshadow="2"
     inkscape:zoom="0.67372241"
     inkscape:cx="176.66809"
     inkscape:cy="526.1811"
     inkscape:document-units="px"
     inkscape:current-layer="layer1"
     showgrid="false"
     showguides="true"
     inkscape:guide-bbox="true"
     guidetolerance="5"
     inkscape:window-width="1440"
     inkscape:window-height="851"
     inkscape:window-x="0"
     inkscape:window-y="1"
     inkscape:window-maximized="1" />
  <metadata
     id="metadata7">
    <rdf:RDF>
      <cc:Work
         rdf:about="">
        <dc:format>image/svg+xml</dc:format>
        <dc:type
           rdf:resource="http://purl.org/dc/dcmitype/StillImage" />
        <dc:title />
      </cc:Work>
    </rdf:RDF>
  </metadata>
  <g
     inkscape:label="Livello 1"
     inkscape:groupmode="layer"
     id="layer1">
    <path
       style="fill:#f9f9f9;stroke:none"
       d="m 352.75815,887.4303 c -19.6098,-11.19744 -44.09543,-25.81967 -54.41264,-32.49385 l -18.75861,-12.13489 -0.27768,-30.86485 c -0.15257,-16.97566 -1.03775,-41.15892 -1.96673,-53.7405 l -1.68904,-22.87568 -39.26447,22.5788 c -21.59546,12.41834 -44.09794,24.2257 -50.0055,26.23863 -10.65842,3.63168 -10.89092,3.57097 -30.22636,-7.89456 -10.7169,-6.35491 -33.9407,-20.00865 -51.60843,-30.34165 l -32.123097,-18.78722 0,-183.37995 0,-183.37992 14.030002,-8.97488 c 7.71645,-4.93618 32.668315,-19.88471 55.448565,-33.21897 l 41.41859,-24.24411 13.38667,6.62505 c 7.36266,3.64378 28.0697,14.98496 46.01566,25.20269 17.94593,10.2177 32.86337,18.31359 33.1498,17.99088 1.34599,-1.51636 3.49858,-45.77722 3.59952,-74.01273 l 0.11255,-31.46931 55.31497,-32.11428 55.31506,-32.1143 50.23232,27.97541 c 121.85649,67.86431 179.21325,100.36019 222.95682,126.31782 l 46.85435,27.80352 -1.59231,18.42536 c -0.87556,10.13397 -1.70574,38.75752 -1.84451,63.60794 l -0.25173,45.18259 -29.27585,16.57509 c -33.43208,18.92816 -61.84153,36.64709 -61.96818,38.64942 -0.10971,1.73024 31.55018,21.111 47.11477,28.84175 6.49021,3.22356 19.19551,10.69471 28.23352,16.60256 l 16.43304,10.74151 -0.69928,65.17092 -0.69939,65.17096 -43.26789,25.0702 c -23.79734,13.78859 -57.42821,33.31071 -74.73545,43.3825 -17.307,10.07176 -59.19817,34.24789 -93.09129,53.72469 -33.89323,19.4768 -71.22807,41.16649 -82.96647,48.1993 -11.7384,7.03282 -21.76866,12.68254 -22.28962,12.55498 -0.52071,-0.12738 -16.99125,-9.39349 -36.60093,-20.59092 z"
       id="path4239" />
    <path
       style="fill:#1a1a1a;stroke:none"
       d="m 382.58798,838.44491 c 1.03846,-32.95341 0.61903,-50.30251 -1.28994,-53.35919 -1.55575,-2.49113 -18.29196,-12.57006 -37.19163,-22.39764 -18.89977,-9.82754 -37.49534,-20.03684 -41.3237,-22.68732 -3.82824,-2.65049 -7.68833,-4.81907 -8.57786,-4.81907 -0.88953,0 -1.2974,23.17237 -0.90634,51.49421 l 0.71101,51.49419 41.95674,24.27723 c 23.07622,13.35249 42.66018,24.40103 43.51985,24.55238 0.85977,0.15123 2.2557,-21.69834 3.10187,-48.55479 z"
       id="path4237" />
    <path
       style="fill:#1a1a1a;stroke:none"
       d="m 473.14338,844.85469 c 15.41506,-8.89316 52.80809,-31.04322 83.09566,-49.2224 30.28757,-18.17916 73.74191,-43.63834 96.56527,-56.5759 l 41.49712,-23.52287 -0.74008,-51.79984 c -0.40698,-28.48993 -0.99228,-51.79986 -1.30093,-51.79986 -0.30831,0 -22.09836,12.39035 -48.42221,27.5341 -26.32363,15.14375 -48.83707,27.53409 -50.02975,27.53409 -1.19254,0 -2.29661,-45.72627 -2.45311,-101.61393 -0.15724,-55.88766 -1.04155,-108.34978 -1.96671,-116.58251 l -1.68194,-14.96859 -42.28591,25.45777 -42.2857,25.45776 -1.96671,119.84238 -1.96659,119.84236 -50.80583,30.64342 -50.80584,30.64344 0,50.56154 0,50.56153 23.76293,-12.91157 c 13.06962,-7.10136 36.37527,-20.1878 51.79033,-29.08092 z"
       id="path4235" />
    <path
       style="fill:#1a1a1a;stroke:none"
       d="m 211.18353,758.41624 c 10.94,-5.97041 28.46206,-16.74907 38.93789,-23.95261 l 19.047,-13.09731 -38.63682,-21.93757 c -21.25024,-12.06566 -40.2758,-21.93756 -42.27906,-21.93756 -3.00525,0 -3.4774,8.02306 -2.69969,45.87517 0.51941,25.28029 2.01935,45.8819 3.34115,45.89016 1.31924,0.008 11.3495,-4.86986 22.28953,-10.84028 z"
       id="path4233" />
    <path
       style="fill:#1a1a1a;stroke:none"
       d="m 172.07279,710.42464 c 0,-30.9235 0.95308,-56.81362 2.11794,-57.53353 2.056,-1.27069 38.80712,18.8137 149.9299,81.93633 29.54153,16.78086 54.64299,30.91262 55.78124,31.4039 1.13814,0.49129 1.7486,-21.92017 1.35639,-49.8032 l -0.71301,-50.69647 -48.5124,-28.01114 C 249.45195,590.03828 240.77933,584.9824 206.59316,564.59292 l -33.20922,-19.80679 -1.31115,-60.07355 -1.31114,-60.07356 -22.28951,-12.90671 c -12.25924,-7.09873 -30.99419,-18.05888 -41.63323,-24.35589 -10.639045,-6.29705 -19.784295,-11.44915 -20.322795,-11.44915 -1.66486,0 -0.42778,309.64304 1.31338,328.74423 l 1.64101,18.00225 39.301255,21.98774 c 21.61568,12.09327 40.2012,21.98774 41.30114,21.98774 1.09996,0 1.99989,-25.30106 1.99989,-56.22459 z"
       id="path4231" />
    <path
       style="fill:#1a1a1a;stroke:none"
       d="m 452.11195,736.31473 31.96916,-18.17796 0.0513,-38.02329 c 0.0285,-20.9128 0.67104,-42.15339 1.42863,-47.2013 2.80602,-18.69803 -0.32044,-18.11857 -45.03101,8.34648 l -41.62871,24.64083 -0.71311,50.63119 -0.7131,50.63124 11.33382,-6.33462 c 6.23369,-3.48402 25.72003,-14.51467 43.303,-24.51257 z"
       id="path4229" />
    <path
       style="fill:#1a1a1a;stroke:none"
       d="m 434.38735,626.14521 c 23.27788,-13.81765 41.75629,-25.69009 41.06317,-26.38319 -3.11158,-3.11154 -52.22576,-30.78657 -69.90393,-39.38966 l -19.5778,-9.52751 -10.57865,6.01551 c -43.45846,24.71254 -72.19052,42.8088 -72.1242,45.42581 0.0789,3.12415 79.85248,48.62188 85.66102,48.85576 1.72539,0.0695 22.18261,-11.17904 45.46039,-24.99672 z"
       id="path4227" />
    <path
       style="fill:#1a1a1a;stroke:none"
       d="m 635.70251,628.52878 c 13.98551,-8.1799 31.02365,-17.91519 37.86208,-21.63394 6.83867,-3.71876 12.41024,-7.35137 12.38142,-8.07249 -0.11554,-2.87163 -64.41833,-39.60786 -75.46968,-43.11544 -5.55592,-1.76333 -5.72477,-1.20398 -5.72477,18.93522 0,23.9751 2.90811,68.75923 4.46499,68.75923 0.58165,0 12.50021,-6.69267 26.48596,-14.87258 z"
       id="path4225" />
    <path
       style="fill:#1a1a1a;stroke:none"
       d="m 276.96459,537.62136 0,-50.71181 -17.27959,-11.09429 c -23.51431,-15.09729 -69.15086,-40.5546 -70.42209,-39.28337 -0.56801,0.56801 -1.46489,23.19641 -1.99305,50.28529 l -0.96028,49.25252 26.31588,16.24636 c 21.75716,13.43198 61.17836,35.68447 63.68357,35.94811 0.36055,0.038 0.65556,-22.75132 0.65556,-50.64281 z"
       id="path4223" />
    <path
       style="fill:#1a1a1a;stroke:none"
       d="m 355.63344,553.62159 24.91181,-14.08351 0.70912,-54.3663 0.70899,-54.36633 -8.57594,4.33471 c -11.25563,5.68915 -75.77217,45.60213 -80.17491,49.59995 -2.70991,2.4607 -3.03567,13.52126 -1.57019,53.31375 l 1.84911,50.2089 18.61508,-10.27884 c 10.23832,-5.65336 29.82549,-16.61641 43.52693,-24.36233 z"
       id="path4221" />
    <path
       style="fill:#1a1a1a;stroke:none"
       d="m 483.52873,482.04934 c -3.51033,-3.16411 -82.73498,-48.43157 -84.7624,-48.43157 -0.64691,0 -1.15174,23.30563 -1.1219,51.79032 l 0.0549,51.79032 43.86919,23.79402 43.86921,23.79403 0.7139,-49.86494 c 0.54083,-37.77798 -0.0949,-50.59387 -2.6223,-52.87218 z"
       id="path4219" />
    <path
       style="fill:#1a1a1a;stroke:none"
       d="m 656.54189,496.47077 37.36777,-22.00807 0,-50.63216 0,-50.63217 -11.14486,5.59885 c -6.12954,3.07935 -25.55999,14.01864 -43.17838,24.30952 l -32.03398,18.71069 -0.0892,52.09192 -0.0892,52.09191 5.90011,-3.76121 c 3.24511,-2.06867 22.71567,-13.66482 43.2679,-25.76928 z"
       id="path4217" />
    <path
       style="fill:#1a1a1a;stroke:none"
       d="m 389.26957,409.20112 102.66293,-59.81758 52.99809,30.11415 c 61.72663,35.07387 48.12167,35.1121 105.05089,-0.2953 L 686.03324,356.77973 646.04806,334.0103 C 471.707,234.73276 404.71903,197.03526 396.6661,193.6705 l -9.35568,-3.90907 -30.91666,18.63931 c -17.00417,10.25161 -35.46017,21.96416 -41.01333,26.0279 -9.28241,6.79283 -9.70539,7.62887 -5.24463,10.36805 2.66861,1.63867 23.63718,13.81792 46.59669,27.06499 22.95951,13.24706 41.83996,25.10076 41.95667,26.34152 0.11672,1.24077 -45.05878,29.43931 -100.38972,62.66342 -67.3033,40.41294 -99.41802,61.07715 -97.02498,62.43066 1.96734,1.11273 21.27751,12.14506 42.91145,24.51628 21.63394,12.37122 40.02883,22.20333 40.87757,21.84915 0.84873,-0.35417 47.74147,-27.56188 104.20609,-60.46159 z"
       id="path4215" />
    <path
       style="fill:#1a1a1a;stroke:none"
       d="m 513.93929,460.71005 c 35.44886,-21.21142 64.50397,-40.84257 63.30959,-42.77518 -1.16742,-1.8889 -22.75284,-15.08067 -68.08174,-41.60769 l -18.22668,-10.66646 -9.30745,5.65904 c -5.11912,3.11246 -24.4446,14.99673 -42.94575,26.40948 l -33.63819,20.75043 8.72638,5.37067 c 21.49191,13.22708 79.74914,46.2346 81.80775,46.35085 1.25361,0.0707 9.5138,-4.20023 18.35609,-9.49114 z"
       id="path4213" />
    <path
       style="fill:#1a1a1a;stroke:none"
       d="m 229.6577,384.96351 c 12.31729,-7.65526 26.30582,-16.8369 31.08562,-20.40359 l 8.69051,-6.48497 -25.73543,-15.14711 c -14.15449,-8.3309 -34.21272,-19.06427 -44.57384,-23.85191 l -18.83841,-8.70478 -13.94028,8.35172 c -7.66715,4.59341 -26.72032,16.30424 -42.3404,26.02399 -27.879045,17.34803 -28.287975,17.74327 -22.28949,21.54188 3.36082,2.1283 22.5462,13.34124 42.63413,24.91767 l 36.52354,21.04807 13.19447,-6.68615 c 7.25695,-3.67738 23.27228,-12.94955 35.58958,-20.60482 z"
       id="path4211" />
    <path
       style="fill:#1a1a1a;stroke:none"
       d="m 339.30877,319.57205 c 19.14544,-11.23989 34.48597,-20.69913 34.08985,-21.0205 -1.8213,-1.47763 -78.41715,-45.87215 -79.14535,-45.87215 -2.60338,0 -3.87954,32.08979 -2.42602,61.00414 1.66913,33.204 1.72617,33.44162 7.17694,29.89735 3.02196,-1.96496 21.15902,-12.76894 40.30458,-24.00884 z"
       id="path3347" />
  </g>
</svg>
