<svg id="Capa_1" enable-background="new 0 0 inherit inherit" height="inherit" viewBox="0 0 inherit inherit" width="inherit" xmlns="http://www.w3.org/2000/svg"><g><path d="m256 106 20-55-20-51c-68.38 0-132.667 26.629-181.02 74.98-48.351 48.353-74.98 112.64-74.98 181.02l59 30 47-30c0-82.843 67.157-150 150-150z" fill="#ff6378"/><path d="m106 256h-106c0 68.38 26.629 132.667 74.98 181.02 16.045 16.044 33.852 29.681 52.974 40.762l49.046-38.782 3.99-53.078c-44.829-25.938-74.99-74.406-74.99-129.922z" fill="#5e54ac"/><path d="m256 406c-27.327 0-52.945-7.311-75.01-20.078l-53.036 91.86c38.503 22.313 82.357 34.218 128.046 34.218 68.38 0 132.667-26.629 181.02-74.98l-20.02-61.02-54.934-13.934c-27.145 27.145-64.645 43.934-106.066 43.934z" fill="#e1f0ff"/><path d="m437.02 437.02-20.02-61.02-54.934-13.934c-27.145 27.145-64.645 43.934-106.066 43.934v106c68.38 0 132.667-26.629 181.02-74.98z" fill="#bedcf0"/><path d="m437.02 74.98c-48.353-48.351-112.64-74.98-181.02-74.98v106c82.843 0 150 67.157 150 150 0 41.421-16.789 78.921-43.934 106.066l74.954 74.954c48.351-48.353 74.98-112.64 74.98-181.02s-26.629-132.667-74.98-181.02z" fill="#d0004f"/><g><circle cx="256" cy="256" fill="#d5e7ff" r="150"/><path d="m406 256c0-82.843-67.157-150-150-150v300c82.843 0 150-67.157 150-150z" fill="#8bb9ff"/><path d="m256 91c-90.981 0-165 74.019-165 165s74.019 165 165 165 165-74.019 165-165-74.019-165-165-165zm118.288 100h-35.29c-3.954-17.509-9.508-33.691-16.549-47.774-1.141-2.281-2.315-4.487-3.516-6.628 23.325 12.343 42.62 31.318 55.355 54.402zm16.712 65c0 12.102-1.61 23.833-4.61 35h-42.362c1.288-11.38 1.973-23.093 1.973-35s-.685-23.62-1.973-35h42.362c3 11.167 4.61 22.898 4.61 35zm-270 0c0-12.102 1.61-23.833 4.61-35h42.362c-1.288 11.38-1.973 23.093-1.973 35s.684 23.62 1.973 35h-42.362c-3-11.167-4.61-22.898-4.61-35zm75 0c0-12.28.755-23.984 2.134-35h42.866v70h-42.866c-1.379-11.016-2.134-22.72-2.134-35zm75-130.075c14.822 9.605 28.865 32.774 37.205 65.075h-37.205zm-30 0v65.075h-37.205c8.34-32.301 22.383-55.47 37.205-65.075zm0 195.075v65.075c-14.822-9.605-28.865-32.774-37.205-65.075zm30 65.075v-65.075h37.205c-8.34 32.301-22.383 55.47-37.205 65.075zm0-95.075v-70h42.866c1.379 11.016 2.134 22.72 2.134 35s-.755 23.984-2.134 35zm-77.933-154.402c-1.201 2.141-2.375 4.347-3.516 6.628-7.042 14.083-12.595 30.265-16.549 47.774h-35.29c12.735-23.084 32.03-42.059 55.355-54.402zm-55.355 184.402h35.29c3.954 17.509 9.508 33.691 16.549 47.774 1.141 2.281 2.315 4.487 3.516 6.628-23.325-12.343-42.62-31.318-55.355-54.402zm181.221 54.402c1.201-2.141 2.375-4.347 3.516-6.628 7.042-14.083 12.595-30.265 16.549-47.774h35.29c-12.735 23.084-32.03 42.059-55.355 54.402z" fill="#8bb9ff"/><path d="m421 256c0-90.981-74.019-165-165-165v330c90.981 0 165-74.019 165-165zm-30 0c0 12.102-1.61 23.833-4.61 35h-42.362c1.288-11.38 1.973-23.093 1.973-35s-.685-23.62-1.973-35h42.362c3 11.167 4.61 22.898 4.61 35zm-16.712-65h-35.29c-3.954-17.509-9.508-33.691-16.549-47.774-1.141-2.281-2.315-4.487-3.516-6.628 23.325 12.343 42.62 31.318 55.355 54.402zm-51.839 177.774c7.042-14.083 12.595-30.265 16.549-47.774h35.29c-12.735 23.084-32.03 42.059-55.355 54.402 1.201-2.141 2.376-4.346 3.516-6.628zm-51.449-242.849c14.822 9.605 28.865 32.774 37.205 65.075h-37.205zm0 95.075h42.866c1.379 11.016 2.134 22.72 2.134 35s-.755 23.984-2.134 35h-42.866zm0 100h37.205c-8.34 32.301-22.383 55.47-37.205 65.075z" fill="#4793ff"/></g></g></svg>